<?xml version="1.0" encoding="UTF-8"?>
<svg id="Favicon_Admin" data-name="Favicon Admin" xmlns="http://www.w3.org/2000/svg" viewBox="0 0 32 32">
  <defs>
    <style>
      .cls-1 {
        fill: #fff;
      }

      .cls-2 {
        fill: #c92c6a;
      }
    </style>
  </defs>
  <circle class="cls-1" cx="16" cy="16" r="15.99"/>
  <g>
    <path class="cls-2" d="M12.96,25.24c-.1,1.2-.05,2.63.9,3.48.74.64,1.89.9,2.8.49.56-.24.98-.68,1.27-1.22.55-1.04.69-2.27.67-3.43,0-.08,0-.19,0-.27.02-.73.14-1.44.29-2.15.19-.84.45-1.67.8-2.46.21-.48.46-.94.74-1.38.1-.15.27-.39.36-.55.89-1.47.96-3.33.46-4.96-.08-.25-.17-.5-.29-.73-.28-.52-.65-.98-1.05-1.42-1.07-1.15-2.49-2.2-4.04-2.53-1.45-.31-3.12.27-3.91,1.56-.51.93-.27,2.18.19,3.1.19.38.44.72.74,1.03.07.07.07.18,0,.24-.06.06-.15.06-.22.02-.39-.27-.72-.63-.97-1.03-.64-1.02-.88-2.37-.38-3.5.55-1.11,1.69-1.84,2.88-2.08.71-.14,1.45-.1,2.15.09,1.97.55,3.91,2.2,5,3.91.22.35.38.75.51,1.15.55,1.79.45,3.83-.52,5.47-.1.17-.26.41-.38.57-.28.43-.52.89-.72,1.36-.31.73-.55,1.49-.72,2.27-.14.66-.25,1.34-.27,2.02,0,0,0,.08,0,.08v.07c.03.85-.03,1.69-.23,2.52-.26,1.07-.82,2.19-1.84,2.73-1.04.57-2.31.45-3.3-.17-1.43-.87-1.77-2.69-1.31-4.21.02-.06.04-.11.06-.17.08-.19.35-.11.33.09h0Z"/>
    <path class="cls-2" d="M11.4,9.39c.27-.6.47-1.3.44-1.96,0-.05-.01-.14-.02-.19,0-.01,0-.04,0-.05-.12-.62-.47-1.17-.59-1.82-.24-1.22.31-3.12,1.68-3.41,1.42-.28,2.38,1.35,2.24,2.6-.09.78-.17,1.48-.82,2.01-.07.05-.15.11-.22.15-.09.06-.21.12-.31.16-.19.09-.34-.16-.18-.29h0s.16-.14.16-.14c.07-.06.16-.14.22-.2.02-.02.05-.05.06-.07,0-.01.04-.04.05-.05.02-.04.07-.1.09-.14.21-.32.25-.7.28-1.07.01-.12.02-.3.03-.43.02-.24-.03-.5-.1-.74-.15-.46-.43-.92-.88-1.12-.2-.09-.43-.09-.64-.02-.87.29-1.23,1.72-1.09,2.54.11.71.56,1.36.64,2.11.05.51-.03,1.03-.17,1.53-.09.3-.19.59-.33.88-.08.15-.26.22-.42.14-.16-.08-.22-.27-.14-.42h0Z"/>
    <path class="cls-2" d="M16.59,6.78c.5-.33.79-.88.84-1.47.02-.28-.01-.57-.09-.84-.03-.11-.07-.23-.15-.31-.25-.29-.61-.09-.8.17-.21.29-.33.64-.41.99-.09.35-.11.68.05,1.02.06.13.15.26.24.37l.02.03c.03.05.02.12-.04.15-.05.03-.1.01-.14-.01-.03-.02-.06-.03-.09-.05-.46-.28-.72-.83-.68-1.36.03-.55.18-1.12.54-1.55.34-.43.97-.7,1.49-.4.29.16.49.45.58.76.18.53.18,1.14-.06,1.66-.22.5-.67.94-1.22,1.06-.12.02-.19-.14-.09-.21h0Z"/>
    <path class="cls-2" d="M18.27,7.81c-.41-.35-.46-.97-.31-1.46.16-.55.55-1.1,1.16-1.19.17-.02.33.01.49.08.7.28.74,1.13.53,1.75-.14.42-.41.85-.85,1.02-.15.06-.31.08-.46.05-.06-.01-.1-.08-.09-.14,0-.04.04-.07.07-.09.05-.03.1-.05.15-.08.3-.21.51-.57.61-.93.08-.29.13-.84-.21-.98-.05-.02-.11-.03-.16-.04-.07,0-.14.03-.2.07-.38.22-.56.73-.62,1.15-.03.22,0,.45.06.66,0,0,0,.06,0,.06,0,.09-.11.14-.17.08h0Z"/>
    <path class="cls-2" d="M20,9.25c-.32-.34-.31-.87-.13-1.27.18-.44.53-.84,1.04-.9.17-.02.33.03.48.11.57.31.53,1.04.29,1.54-.16.35-.43.68-.82.78-.13.04-.27.04-.4,0-.06-.02-.08-.08-.07-.13.01-.04.04-.06.07-.07.33-.13.59-.46.72-.78.09-.23.19-.68-.08-.83-.04-.02-.08-.04-.13-.04-.04,0-.08,0-.12.02-.37.13-.58.56-.67.92-.04.17-.05.35-.02.53,0,.01,0,.02,0,.03v.06c-.02.07-.12.11-.17.05h0Z"/>
    <path class="cls-2" d="M21.32,10.82c-.24-.3-.19-.74-.01-1.05.19-.37.56-.7,1.01-.65.25.04.47.21.57.44.13.33.03.69-.14.98-.11.18-.25.34-.43.46-.18.11-.43.17-.64.07-.08-.04-.07-.15.01-.18.08-.02.15-.06.21-.1.06-.04.11-.08.16-.13.18-.17.33-.41.36-.66.03-.17,0-.33-.18-.38-.05,0-.11,0-.17.03-.25.1-.43.39-.53.64-.05.14-.07.29-.07.44l-.03.07c-.02.05-.1.07-.13.02h0Z"/>
  </g>
</svg>